While still out to destroy the evil Umbrella Corporation, Alice joins a group of survivors who want to relocate to the mysterious but supposedly unharmed safe haven known only as Arcadia..
 
http://www.imdb.com/title/tt1220634/

Subtitles (srt) : Dutch, English.

Covers included.

De wereld wordt nog steeds geteisterd door het virus dat mensen in zombies veranderd. Alice (Milla Jovovich) blijft op haar pad toch steeds meer overlevenden vinden en samen zoeken ze naar een veilige haven. In haar gevecht met de 'Umbrella Corporation' krijgt Alice onverwachte hulp van een oude bekende..
 
http://www.moviemeter.nl/film/64859

Ondertitels (srt) : Engels, Nederlands.

Hoesjes bijgevoegd.

General
Complete name                    : Resident Evil-Afterlife-AC3-XviD-BRRip[Eng]2010\Resident Evil-Afterlife-AC3-XviD-BRRip[Eng]2010.avi
Format                           : AVI
Format/Info                      : Audio Video Interleave
File size                        : 1.46 GiB
Duration                         : 1h 36mn
Overall bit rate                 : 2 158 Kbps
Writing application              : VirtualDubMod 1.5.4.1 (build 2178/release)
Writing library                  : VirtualDubMod build 2178/release
Source                           : Resident.Evil.Afterlife.2010.Bluray.720p.DTS.x264-CHD

Video
ID                               : 0
Format                           : MPEG-4 Visual
Format profile                   : Simple@L3
Format settings, BVOP            : No
Format settings, QPel            : No
Format settings, GMC             : No warppoints
Format settings, Matrix          : Default (H.263)
Codec ID                         : XVID
Codec ID/Hint                    : XviD
Duration                         : 1h 36mn
Bit rate                         : 1 701 Kbps
Width                            : 720 pixels
Height                           : 304 pixels
Display aspect ratio             : 2.35:1
Frame rate                       : 23.976 fps
Resolution                       : 8 bits
Colorimetry                      : 4:2:0
Scan type                        : Progressive
Bits/(Pixel*Frame)               : 0.324
Stream size                      : 1.15 GiB (79%)
Writing library                  : XviD 1.1.2 (UTC 2006-11-01)

Audio
ID                               : 1
Format                           : AC-3
Format/Info                      : Audio Coding 3
Codec ID                         : 2000
Duration                         : 1h 36mn
Bit rate mode                    : Constant
Bit rate                         : 448 Kbps
Channel(s)                       : 6 channels
Channel positions                : Front: L C R, Surround: L R, LFE
Sampling rate                    : 48.0 KHz
Stream size                      : 310 MiB (21%)
Alignment                        : Split accross interleaves
Interleave, duration             : 42 ms (1.00 video frame)
Interleave, preload duration     : 500 ms

Thanks to Simply ReleaseS for the Dutch subs.Nice job!